<svg width="20" height="20" viewBox="0 0 20 20" fill="none" xmlns="http://www.w3.org/2000/svg">
<path d="M13.3332 12.5C13.3332 12.73 13.1465 12.9167 12.9165 12.9167H10.4165V15.4167C10.4165 15.6467 10.2298 15.8333 9.99984 15.8333C9.76984 15.8333 9.58317 15.6467 9.58317 15.4167V12.9167H7.08317C6.85317 12.9167 6.6665 12.73 6.6665 12.5C6.6665 12.27 6.85317 12.0833 7.08317 12.0833H9.58317V9.58333C9.58317 9.35333 9.76984 9.16667 9.99984 9.16667C10.2298 9.16667 10.4165 9.35333 10.4165 9.58333V12.0833H12.9165C13.1465 12.0833 13.3332 12.27 13.3332 12.5ZM18.3332 8.32083V16.25C18.3332 18.3175 16.6507 20 14.5832 20H5.4165C3.349 20 1.6665 18.3175 1.6665 16.25V3.75C1.6665 1.6825 3.349 0 5.4165 0H10.0123C11.4582 0 12.819 0.563333 13.8432 1.58667L16.7465 4.49083C17.7698 5.51333 18.3332 6.87333 18.3332 8.32083ZM13.2532 2.175C12.794 1.71667 12.2532 1.37583 11.6665 1.14917V5.41583C11.6665 6.105 12.2273 6.66583 12.9165 6.66583H17.184C16.9565 6.07917 16.6157 5.5375 16.1573 5.07917L13.2532 2.175ZM17.4998 8.32083C17.4998 8.04167 17.4682 7.76833 17.4198 7.5H12.9165C11.7673 7.5 10.8332 6.565 10.8332 5.41667V0.913333C10.564 0.865 10.2907 0.833333 10.0123 0.833333H5.4165C3.80817 0.833333 2.49984 2.14167 2.49984 3.75V16.25C2.49984 17.8583 3.80817 19.1667 5.4165 19.1667H14.5832C16.1915 19.1667 17.4998 17.8583 17.4998 16.25V8.32083Z" fill="#EEEEEE"/>
</svg>
