<svg width="12" height="12" viewBox="0 0 12 12" fill="none" xmlns="http://www.w3.org/2000/svg">
<g clip-path="url(#clip0_37_112)">
<path d="M11.798 5.9135C11.6025 5.651 11.3015 5.5 10.972 5.5H10.5005V3.75C10.5005 2.5095 9.491 1.5 8.2505 1.5H5.2225C5.1065 1.5 4.9905 1.4725 4.887 1.421L3.3095 0.632C3.137 0.546 2.944 0.5 2.7505 0.5H1.7505C0.785 0.5 0 1.285 0 2.25V9.25C0 10.4905 1.0095 11.5 2.25 11.5H9.029C10.0305 11.5 10.8965 10.8555 11.1875 9.8855L11.956 6.8165C12.05 6.5035 11.992 6.1745 11.798 5.9135ZM0.5 9.25V2.25C0.5 1.561 1.0605 1 1.75 1H2.75C2.866 1 2.982 1.0275 3.0855 1.079L4.663 1.868C4.8355 1.954 5.0285 2 5.222 2H8.25C9.215 2 10 2.785 10 3.75V5.5H4.0575C3.3125 5.5 2.6485 5.969 2.402 6.677L1.1855 10.639C0.7685 10.319 0.4995 9.8155 0.4995 9.2505L0.5 9.25ZM11.474 6.684L10.7055 9.753C10.4815 10.499 9.8075 11 9.0285 11H2.25C2.0325 11 1.8245 10.96 1.633 10.8875L2.8775 6.832C3.051 6.334 3.525 5.9995 4.0575 5.9995H10.9715C11.1415 5.9995 11.296 6.0765 11.397 6.2115C11.496 6.3445 11.5255 6.513 11.474 6.6835V6.684Z" fill="#EEEEEE"/>
</g>
<defs>
<clipPath id="clip0_37_112">
<rect width="12" height="12" fill="white"/>
</clipPath>
</defs>
</svg>
